<svg width="71" height="39" viewBox="0 0 71 39" fill="none" xmlns="http://www.w3.org/2000/svg"><path fill-rule="evenodd" clip-rule="evenodd" d="M42.51 6.27c-1.48 0-3.69.77-3.69 2 0 1.24 1.04 2.17 2.9 2.53 2.1.4 4.74.67 6.38 1.75 1.6 1.06 3.53 3.34 3.58 7.4.06 4.94-3.58 8.64-8.85 8.64H30.8V21.8h9.33c3.16 0 3.74-1.54 3.74-2.36 0-.83-1-2.16-3.37-2.16-3.38 0-4.85-.36-7.43-3.04-1.13-1.17-2.06-3.24-2.06-6.42C31.02 3.5 35.66 0 38.4 0h31.2v6.27H42.5zm11.7 22.32H69.6V21.8H54.2v6.79zm0-11.1H69.6v-6.8H54.2v6.8zm-39.07-.42L20.69 6.1v10.97h-5.55zM23.78 0H14.7L.03 29H9.1l3.95-7.82h7.64V29h7.59V0h-4.5zM6.23 33.57h3.15V32H5.6c-.75 0-2.46.4-2.46 2.09v3.19c0 .59.89 1.72 2.46 1.72h3.77v-1.57H6.23c-.62 0-1.17-.13-1.17-2.17 0-1.43.55-1.7 1.17-1.7zM37.41 39h2.08v-7H37.4v7zM48.83 39h2.08v-7h-2.08v7zM13.58 32h-2.13v6.96h1.76V39h4.47v-1.37h-4.1v-1.5h4.1v-1.37h-4.1V33.4h4.1v-1.37h-4.1V32zM33.19 32h-2v.03H29.1v1.57h2.08V39h2v-5.4h2.15v-1.57H33.2V32zM59.22 33.4v-1.37h-4.1V32h-2.13v6.96h1.76V39h4.47v-1.37h-4.1v-1.5h4.1v-1.37h-4.1V33.4h4.1zM42.65 32h-2.12v7h2.12v-2.4h3.89v-1.37h-3.89V33.4h4.1v-1.37h-4.1V32zM26.02 36.58c.5.02 2.05-.1 2.05-2.23 0-1.7-.89-2.35-1.91-2.35h-6.4v7h2.06v-5.43l2.28.02c.8 0 1.65-.18 1.65.86s-1.07.94-1.07.94l.05.05-1.74.08L25.57 39h2.29l-1.54-2.01-.3-.41zM64.4 33.64v3.64h2.74c.57 0 1.36-.26 1.36-1.63 0-1.36-.29-2.01-1.57-2.01H64.4zm0 5.36h-2.07v-7H68c1.07 0 2.64.85 2.64 3v1.63c0 1.17-.5 2.37-3.07 2.37H64.4z" fill="#fff"/></svg>