<svg width="58" height="61" viewBox="0 0 58 61" fill="none" xmlns="http://www.w3.org/2000/svg"><path d="M33.05 12.64l-1.44-1.15-7 8.8 1.44 1.14 7-8.79z" fill="#fff"/><path fill-rule="evenodd" clip-rule="evenodd" d="M33.46 7.39l-1.18 1.47c-.31.4-.2 1 .23 1.34l1.6 1.28c.44.35 1.05.31 1.36-.08l1.17-1.47c.2.81.05 1.67-.48 2.34-.98 1.22-2.86 1.34-4.2.27-1.35-1.07-1.65-2.94-.68-4.15.53-.67 1.34-1.01 2.18-1z" fill="#fff"/><path d="M31.95 12.54c.5.4 1.17.37 1.52-.07.34-.43.22-1.1-.27-1.5-.5-.38-1.17-.35-1.52.08-.34.43-.22 1.1.27 1.5z" fill="#fff"/><path fill-rule="evenodd" clip-rule="evenodd" d="M24.2 25.54l1.18-1.48c.3-.39.2-1-.24-1.34l-1.59-1.27c-.44-.35-1.05-.32-1.36.07L21 23c-.19-.82-.04-1.68.5-2.35.96-1.22 2.85-1.34 4.2-.26 1.34 1.07 1.64 2.93.67 4.15-.53.67-1.34 1-2.18 1z" fill="#fff"/><path d="M25.7 20.38c-.49-.4-1.17-.36-1.51.07-.35.43-.22 1.1.27 1.5.5.39 1.17.36 1.52-.08.34-.43.22-1.1-.27-1.49z" fill="#fff"/><path fill-rule="evenodd" clip-rule="evenodd" d="M32.49 13.08c.03-.04-.03-.14-.13-.22l-.37-.3c-.1-.08-.22-.11-.25-.07l-6.03 7.57c-.04.04.02.14.12.22l.38.3c.1.08.21.12.24.07l6.04-7.57z" fill="#fff"/><path fill-rule="evenodd" clip-rule="evenodd" d="M38 30.57H10.88h9l-9-15.28 9-15.29h-9H47h-9l9 15.29-9 15.28zM28.93 4.53c6.22 0 11.27 4.82 11.27 10.76 0 5.94-5.05 10.76-11.27 10.76-6.21 0-11.26-4.82-11.26-10.76 0-5.94 5.05-10.76 11.26-10.76z" fill="#fff"/><path d="M3.54 48.06c.91 0 1.67-.23 2.27-.68.6-.45 1-1.07 1.2-1.85H5.47c-.16.38-.4.68-.74.9-.34.22-.74.33-1.21.33a1.9 1.9 0 01-1.78-1.08 2.68 2.68 0 01-.26-1.21c0-.47.1-.87.26-1.22a1.9 1.9 0 011.78-1.08c.47 0 .87.11 1.21.33.34.22.58.52.74.9h1.54a3.2 3.2 0 00-1.2-1.85 3.68 3.68 0 00-2.27-.68c-.7 0-1.32.15-1.86.46-.53.3-.94.72-1.24 1.27-.3.55-.44 1.17-.44 1.87 0 .7.15 1.31.44 1.86.3.55.71.97 1.25 1.27.53.3 1.15.46 1.85.46zm9.98-.06v-1.13h-2.9v-1.9h2.59v-1.08h-2.6v-1.83h2.9v-1.12H9.16V48h4.37zm3.58 0v-2.75h.64L19.46 48h1.62l-1.83-2.82a2.3 2.3 0 001.33-.72c.31-.36.47-.8.47-1.34 0-.65-.23-1.18-.67-1.58-.45-.4-1.1-.6-1.95-.6h-2.8V48h1.47zm1.2-3.72h-1.2v-2.15h1.2c.43 0 .75.1.96.28.2.2.3.46.3.8 0 .71-.42 1.07-1.25 1.07zM26.04 48v-5.94h2.03v-1.12h-5.5v1.12h2V48h1.47zm5.34 0v-7.06H29.9V48h1.47zm3.83 0v-2.97h2.47v-1.08H35.2v-1.89h3.08v-1.12h-4.54V48h1.46zm6.57 0v-7.06h-1.46V48h1.46zm6.74 0v-1.13h-2.9v-1.9h2.59v-1.08h-2.6v-1.83h2.91v-1.12h-4.37V48h4.37zm4.73 0c.8 0 1.48-.15 2.06-.45.57-.3 1.02-.7 1.32-1.24.3-.53.46-1.15.46-1.85 0-.7-.16-1.33-.46-1.86-.3-.52-.75-.94-1.32-1.23a4.55 4.55 0 00-2.06-.43h-2.61V48h2.6zm-.13-1.26h-1.02v-4.57h1.02c.79 0 1.4.2 1.83.6.44.4.65.96.65 1.69 0 .72-.21 1.28-.65 1.68-.43.4-1.04.6-1.83.6zM7.97 60.07c.53 0 .97-.1 1.34-.27a1.86 1.86 0 001.11-1.73 1.8 1.8 0 00-1.06-1.73c-.3-.14-.68-.29-1.15-.45-.34-.1-.6-.2-.8-.29-.2-.09-.37-.2-.5-.34a.72.72 0 01-.19-.51c0-.26.09-.46.25-.6a1 1 0 01.66-.2c.3 0 .55.08.73.24.18.17.3.38.34.63h1.57a2.02 2.02 0 00-.78-1.44 2.93 2.93 0 00-1.85-.54c-.75 0-1.35.17-1.8.52-.46.36-.68.83-.68 1.44 0 .44.1.8.3 1.07.2.27.45.48.74.63.3.14.67.28 1.13.43.35.11.63.21.83.3.2.09.36.2.5.35.13.14.2.32.2.54a.8.8 0 01-.25.6c-.16.16-.4.24-.7.24-.34 0-.61-.1-.82-.29-.2-.19-.32-.42-.36-.71H5.18c.03.43.17.8.42 1.12.24.32.57.57.98.73.4.17.87.26 1.39.26zM16.9 60v-1.13H14v-1.9h2.59v-1.08H14v-1.83h2.9v-1.12h-4.36V60h4.37zm3.58 0v-2.75h.65l1.7 2.75h1.63l-1.83-2.82a2.3 2.3 0 001.34-.72c.3-.36.46-.8.46-1.34 0-.65-.23-1.18-.67-1.58-.45-.4-1.1-.6-1.95-.6h-2.8V60h1.47zm1.2-3.72h-1.2v-2.15h1.2c.43 0 .75.1.96.28.2.2.3.46.3.8 0 .71-.42 1.07-1.25 1.07zM30.4 60l2.6-7.06h-1.57l-1.97 5.59-1.96-5.59h-1.57l2.6 7.06h1.88zm5.9 0v-7.06h-1.47V60h1.46zm5.67.06c.92 0 1.68-.23 2.28-.68.6-.45 1-1.07 1.2-1.85H43.9c-.16.38-.41.68-.75.9-.33.22-.74.33-1.2.33a1.9 1.9 0 01-1.78-1.08 2.68 2.68 0 01-.26-1.21c0-.47.08-.87.26-1.22a1.9 1.9 0 011.77-1.08c.47 0 .88.11 1.21.33.34.22.59.52.75.9h1.53a3.2 3.2 0 00-1.2-1.85 3.67 3.67 0 00-2.27-.68c-.7 0-1.32.15-1.85.46-.54.3-.95.72-1.25 1.27-.29.55-.44 1.17-.44 1.87 0 .7.15 1.31.44 1.86.3.55.71.97 1.25 1.27.54.3 1.15.46 1.85.46zm9.98-.06v-1.13h-2.9v-1.9h2.6v-1.08h-2.6v-1.83h2.9v-1.12h-4.37V60h4.37z" fill="#fff"/></svg>