<svg width="76" height="59" viewBox="0 0 76 59" fill="none" xmlns="http://www.w3.org/2000/svg"><path fill-rule="evenodd" clip-rule="evenodd" d="M24.13 5.2c-3.96 2.5-6.4 5.98-6.4 9.83 0 2.12.7 4 1.9 5.74l4.5-15.56zM40.6 20.86h-6.41l-2.06 7.26a30.65 30.65 0 0010.69.37l-2.22-7.63zM30.07 27.5l-1.9-6.65h-6.33l-.56 1.89a21.52 21.52 0 008.79 4.84v-.08zm22.86-6.65h-6.4l-.56 1.97 1.5 4.68a21.04 21.04 0 006.5-3.02l-1.04-3.63zm-.55-1.81L49.69 9.9l-2.61 9.14h5.3zm5.38 1.81a9.8 9.8 0 001.98-5.82c0-4-2.61-7.56-6.88-10.13l4.9 15.95zm-30.15-1.81l-2.6-9.14-2.62 9.14h5.22zm17.25 0l4.6-15.8a30.3 30.3 0 00-9.98-1.89l5.38 17.69zM37.34 9.9l-2.6 9.14h5.3l-2.7-9.14zM27.7 3.4l4.83 15.64 5.06-17.69c-3.56.16-6.96.84-9.89 2.04zM13.3 15.02C13.3 6.8 24.7.07 38.7.07c14.08 0 25.48 6.72 25.48 14.96 0 8.31-11.4 15.04-25.48 15.04-14 0-25.4-6.73-25.4-15.04z" fill="#fff"/><path d="M8.37 46.57l.52-1.42h2.94l.51 1.42h1.55l-2.7-6.98H9.54l-2.7 6.98h1.54zm3.07-2.49H9.28l1.08-2.98 1.08 2.98zm5.74 2.49v-2.62h1.2c.84 0 1.49-.2 1.94-.6.45-.4.68-.94.68-1.61a2.1 2.1 0 00-.66-1.63c-.44-.4-1.1-.6-1.96-.6h-2.66v7.06h1.46zm1.05-3.75h-1.05v-2.17h1.05c.45 0 .78.1.98.28.2.19.3.46.3.81 0 .72-.42 1.08-1.28 1.08zm6.23 3.75v-2.62h1.2c.84 0 1.49-.2 1.94-.6.45-.4.68-.94.68-1.61a2.1 2.1 0 00-.66-1.63c-.44-.4-1.1-.6-1.96-.6H23v7.06h1.47zm1.05-3.75h-1.05v-2.17h1.05c.45 0 .78.1.98.28.2.19.3.46.3.81 0 .72-.43 1.08-1.28 1.08zm6.23 3.75v-2.75h.64l1.71 2.75h1.62l-1.82-2.82a2.3 2.3 0 001.33-.72c.3-.36.46-.8.46-1.34 0-.65-.22-1.18-.67-1.58-.44-.4-1.1-.6-1.94-.6h-2.8v7.06h1.47zm1.2-3.72h-1.2V40.7h1.2c.43 0 .75.1.95.28.2.2.3.46.3.8 0 .71-.41 1.07-1.25 1.07zm8.2 3.79c.69 0 1.31-.15 1.87-.46.55-.3 1-.74 1.32-1.29.32-.55.48-1.18.48-1.87 0-.7-.16-1.32-.48-1.87A3.4 3.4 0 0043 39.87a3.8 3.8 0 00-1.87-.46c-.68 0-1.3.15-1.86.46-.56.3-1 .73-1.32 1.28a3.62 3.62 0 00-.48 1.87c0 .7.16 1.32.48 1.87.32.55.76.98 1.32 1.29.56.3 1.18.46 1.86.46zm0-1.31c-.43 0-.8-.1-1.13-.28a1.94 1.94 0 01-.76-.8 2.6 2.6 0 01-.28-1.23c0-.47.1-.88.28-1.23.18-.35.44-.61.76-.8.33-.19.7-.28 1.13-.28.43 0 .81.1 1.14.28.32.19.58.45.76.8.18.35.27.76.27 1.23s-.09.87-.27 1.22c-.18.35-.44.62-.76.81-.33.19-.7.28-1.14.28zm9.74 1.24l2.6-7.06H51.9l-1.97 5.59-1.96-5.59H46.4l2.6 7.06h1.87zm8.8 0v-1.13h-2.9v-1.9h2.59v-1.08h-2.6v-1.83h2.9v-1.12h-4.36v7.06h4.37zm4.72 0c.8 0 1.49-.15 2.06-.45.58-.3 1.02-.7 1.33-1.24.3-.53.45-1.15.45-1.85 0-.7-.15-1.33-.45-1.86-.3-.53-.75-.94-1.33-1.23a4.55 4.55 0 00-2.06-.43h-2.6v7.06h2.6zm-.12-1.26h-1.02v-4.57h1.02c.79 0 1.4.2 1.83.6.43.4.65.96.65 1.69 0 .72-.22 1.28-.65 1.68-.43.4-1.04.6-1.83.6zM1.55 58.57l.52-1.42H5l.51 1.42h1.55l-2.69-6.98H2.7L0 58.57h1.55zm3.06-2.49H2.45l1.08-2.98 1.08 2.98zm7.13 2.56a3.4 3.4 0 001.52-.33c.45-.22.8-.56 1.05-1 .26-.46.38-1 .38-1.66v-4.14h-1.45v4.14c0 .55-.13.97-.38 1.24-.25.28-.61.42-1.09.42-.47 0-.84-.14-1.1-.42-.24-.27-.37-.69-.37-1.24v-4.14H8.85v4.14c0 .98.26 1.72.79 2.23.52.5 1.22.76 2.1.76zm8.24-.07v-5.94H22v-1.12h-5.5v1.12h2.01v5.94h1.47zm7.3.07c.7 0 1.31-.15 1.87-.46.56-.3 1-.74 1.32-1.29.32-.55.48-1.18.48-1.87 0-.7-.16-1.32-.48-1.87a3.4 3.4 0 00-1.32-1.28 3.8 3.8 0 00-1.86-.46c-.69 0-1.3.15-1.87.46-.55.3-1 .73-1.32 1.28a3.62 3.62 0 00-.48 1.87c0 .7.16 1.32.48 1.87.33.55.77.98 1.32 1.29.56.3 1.18.46 1.87.46zm0-1.31c-.42 0-.8-.1-1.12-.28a1.94 1.94 0 01-.77-.8 2.6 2.6 0 01-.27-1.23c0-.47.09-.88.27-1.23.19-.35.44-.61.77-.8.32-.19.7-.28 1.13-.28.43 0 .8.1 1.13.28.32.19.58.45.76.8.19.35.28.76.28 1.23s-.1.87-.28 1.22c-.18.35-.44.62-.76.81-.33.19-.7.28-1.13.28zm10.58 1.24v-2.75h.64l1.71 2.75h1.62l-1.82-2.82a2.3 2.3 0 001.33-.72c.3-.36.46-.8.46-1.34 0-.65-.22-1.18-.67-1.58-.44-.4-1.1-.6-1.94-.6h-2.8v7.06h1.47zm1.2-3.72h-1.2V52.7h1.2c.43 0 .75.1.95.28.2.2.3.46.3.8 0 .71-.41 1.07-1.25 1.07zm9.14 3.72v-1.13h-2.9v-1.9h2.59v-1.08h-2.6v-1.83h2.9v-1.12h-4.36v7.06h4.37zm3.58 0v-2.62h1.2c.84 0 1.49-.2 1.94-.6.46-.4.68-.94.68-1.61a2.1 2.1 0 00-.66-1.63c-.44-.4-1.09-.6-1.95-.6h-2.67v7.06h1.46zm1.05-3.75h-1.05v-2.17h1.05c.46 0 .79.1.99.28.2.19.3.46.3.81 0 .72-.43 1.08-1.29 1.08zm5.77 3.75l.52-1.42h2.94l.51 1.42h1.55l-2.7-6.98h-1.66l-2.7 6.98h1.54zm3.07-2.49H59.5l1.08-2.98 1.08 2.98zm5.74 2.49v-7.06h-1.47v7.06h1.47zm3.83 0v-2.75h.64l1.72 2.75h1.62l-1.83-2.82a2.3 2.3 0 001.33-.72c.31-.36.47-.8.47-1.34 0-.65-.23-1.18-.67-1.58-.45-.4-1.1-.6-1.95-.6h-2.8v7.06h1.47zm1.2-3.72h-1.2V52.7h1.2c.43 0 .75.1.95.28.2.2.31.46.31.8 0 .71-.42 1.07-1.26 1.07z" fill="#fff"/></svg>